<svg version="1.2" xmlns="http://www.w3.org/2000/svg" viewBox="0 0 486 386" width="486" height="386">
    <!-- https://github.com/Apix0n -->
    <style>
        .a {
            fill: #ffffff
        }
    </style>
    <path class="a" d="m121 242c-66.9 0-121-54.1-121-121 0-66.9 54.1-121 121-121 66.9 0 121 54.1 121 121 0 66.9-54.1 121-121 121z" />
    <path class="a" d="m289 386c-48.7 0-88-39.3-88-88 0-48.7 39.3-88 88-88 48.7 0 88 39.3 88 88 0 48.7-39.3 88-88 88z" />
    <path class="a" d="m437.5 259c-26.8 0-48.5-21.7-48.5-48.5 0-26.8 21.7-48.5 48.5-48.5 26.8 0 48.5 21.7 48.5 48.5 0 26.8-21.7 48.5-48.5 48.5z" />
</svg>