<svg version="1.2" xmlns="http://www.w3.org/2000/svg" viewBox="0 0 24 24" width="24" height="24"><style>.a{fill:#fff}</style><path class="a" d="m24 12.3c0 5.3-3.4 9.8-8.2 11.4-0.7 0.1-0.9-0.3-0.9-0.6 0-0.4 0.1-1.7 0.1-3.3 0-1.1-0.4-1.8-0.9-2.2 2.7-0.3 5.5-1.3 5.5-5.9 0-1.3-0.4-2.4-1.2-3.2 0.1-0.4 0.5-1.6-0.1-3.2 0 0-1-0.3-3.3 1.2q-1.5-0.4-3-0.4-1.6 0-3 0.4c-2.3-1.5-3.3-1.2-3.3-1.2-0.7 1.6-0.3 2.8-0.1 3.2-0.8 0.8-1.3 1.9-1.3 3.2 0 4.6 2.8 5.6 5.5 5.9-0.3 0.3-0.6 0.8-0.8 1.6-0.6 0.3-2.4 0.8-3.4-1 0 0-0.7-1.1-1.9-1.2 0 0-1.2 0-0.1 0.7 0 0 0.8 0.4 1.4 1.8 0 0 0.7 2.3 4 1.6 0 1 0 1.7 0 2 0 0.3-0.2 0.7-0.8 0.6-4.8-1.6-8.2-6.1-8.2-11.4 0-6.6 5.4-12 12-12 6.6 0 12 5.4 12 12z"/></svg>