<svg version="1.2" xmlns="http://www.w3.org/2000/svg" viewBox="0 0 144 144" width="144" height="144">
	<style>
		.a {
			fill: #ffffff;
		}
	</style>
	<path id="Layer" fill-rule="evenodd" class="a" d="m95 23.4c11.9 3.3 24.9 12.5 29 20.6 1.3 2.5 2.9 4 4.7 4.4 4.1 1.1 10.1 6.3 12.5 11 1.3 2.6 2.3 6.7 2.6 11.3 0.7 10.5-0.4 15.6-4.4 20.8l-3.4 4.5v29h-7.7l-0.5-11.5c-0.2-6.3-0.7-11.7-0.9-12-0.3-0.2-3.7 0.2-7.5 1-16.1 3.4-36.7 2.5-45.6-2.1-9.1-4.6-12-9.8-12.6-22.9-0.5-12.5 0.7-17.4 5.9-23 6.6-7.1 11.9-8.8 29.4-9.5l15-0.5-3-2.8c-15.4-14.6-48.2-14.1-60.7 0.8-7.4 8.8-10.8 27.7-10.8 60.6v20.9h-10l0.3-23.8 0.2-23.7-3.1-0.3c-4.6-0.4-10 2.2-11.8 5.6-1.8 3.5-3.6 19.8-3.6 32.8v9.4h-9.3l0.7-10.8c1-14.2 3.4-30.6 5.5-36.2 2-5.5 6.6-8.2 17.2-10.1 6.2-1.1 7-1.5 7.5-3.8 3.4-15.5 6.7-23.8 11.9-29.8 4.2-5 13.6-9.9 21.5-11.2 7.2-1.3 24-0.5 31 1.3zm-14.3 33.1c-7.9 2.7-10.7 7.7-10.7 18.8 0 6.8 1.9 11.5 5.8 14.4 12.8 9.4 48.4 6.7 57.1-4.3 2.4-3.1 2.8-10.1 1-18.3-1.3-6.2-4.8-9.5-11.9-11-7.4-1.6-36.6-1.3-41.3 0.4z" />
</svg>