<?xml version="1.0" standalone="no"?>
<!DOCTYPE svg PUBLIC "-//W3C//DTD SVG 20010904//EN"
 "http://www.w3.org/TR/2001/REC-SVG-20010904/DTD/svg10.dtd">
<svg version="1.0" xmlns="http://www.w3.org/2000/svg"
 width="144.000000pt" height="144.000000pt" viewBox="0 0 144.000000 144.000000"
 preserveAspectRatio="xMidYMid meet">
<metadata>
Created by potrace 1.14, written by Peter Selinger 2001-2017
</metadata>
<g transform="translate(0.000000,144.000000) scale(0.100000,-0.100000)"
fill="#000000" stroke="none">
<path d="M640 1219 c-79 -13 -173 -62 -215 -112 -52 -60 -85 -143 -119 -298
-5 -23 -13 -27 -75 -38 -106 -19 -152 -46 -172 -101 -21 -56 -45 -220 -55
-362 l-7 -108 47 0 46 0 0 94 c0 130 18 293 36 328 18 34 72 60 118 56 l31 -3
-2 -237 -3 -238 50 0 50 0 0 209 c0 329 34 518 108 606 125 149 453 154 607 8
l30 -28 -150 -5 c-175 -7 -228 -24 -294 -95 -52 -56 -64 -105 -59 -230 6 -131
35 -183 126 -229 89 -46 295 -55 456 -21 38 8 72 12 75 10 2 -3 7 -57 9 -120
l5 -115 38 0 39 0 0 145 0 145 34 45 c40 52 51 103 44 208 -3 46 -13 87 -26
113 -24 47 -84 99 -125 110 -18 4 -34 19 -47 44 -41 81 -171 173 -290 206 -70
18 -238 26 -310 13z m580 -340 c71 -15 106 -48 119 -110 18 -82 14 -152 -10
-183 -87 -110 -443 -137 -571 -43 -39 29 -58 76 -58 144 0 111 28 161 107 188
47 17 339 20 413 4z"/>
</g>
</svg>
